<?xml version="1.0" encoding="UTF-8" standalone="no"?>
<!-- Created with Inkscape (http://www.inkscape.org/) -->

<svg
   xmlns:dc="http://purl.org/dc/elements/1.1/"
   xmlns:cc="http://creativecommons.org/ns#"
   xmlns:rdf="http://www.w3.org/1999/02/22-rdf-syntax-ns#"
   xmlns:svg="http://www.w3.org/2000/svg"
   xmlns="http://www.w3.org/2000/svg"
   xmlns:sodipodi="http://sodipodi.sourceforge.net/DTD/sodipodi-0.dtd"
   xmlns:inkscape="http://www.inkscape.org/namespaces/inkscape"
   width="25.740606mm"
   height="28.272701mm"
   viewBox="0 0 25.740606 28.272701"
   version="1.1"
   id="svg8"
   inkscape:version="0.92.5 (2060ec1f9f, 2020-04-08)"
   sodipodi:docname="pyocto_stacked_outlined.svg">
  <defs
     id="defs2" />
  <sodipodi:namedview
     id="base"
     pagecolor="#ffffff"
     bordercolor="#666666"
     borderopacity="1.0"
     inkscape:pageopacity="0.0"
     inkscape:pageshadow="2"
     inkscape:zoom="2.8284271"
     inkscape:cx="27.716132"
     inkscape:cy="38.69983"
     inkscape:document-units="mm"
     inkscape:current-layer="text828"
     showgrid="false"
     inkscape:window-width="1920"
     inkscape:window-height="1031"
     inkscape:window-x="0"
     inkscape:window-y="25"
     inkscape:window-maximized="1"
     fit-margin-top="0"
     fit-margin-left="0"
     fit-margin-right="0"
     fit-margin-bottom="0" />
  <metadata
     id="metadata5">
    <rdf:RDF>
      <cc:Work
         rdf:about="">
        <dc:format>image/svg+xml</dc:format>
        <dc:type
           rdf:resource="http://purl.org/dc/dcmitype/StillImage" />
        <dc:title />
      </cc:Work>
    </rdf:RDF>
  </metadata>
  <g
     inkscape:label="Layer 1"
     inkscape:groupmode="layer"
     id="layer1"
     transform="translate(-21.99109,-122.14781)">
    <g
       aria-label="PyOcto"
       style="font-style:normal;font-variant:normal;font-weight:normal;font-stretch:normal;font-size:7.86694574px;line-height:1.25;font-family:Verdana;-inkscape-font-specification:Verdana;letter-spacing:0px;word-spacing:0px;fill:#000000;fill-opacity:1;stroke:none;stroke-width:0.42224967"
       id="text828">
      <path
         d="m 22.028144,148.66225 v -5.58553 h 2.312882 q 0.361879,0 0.660823,0.14947 0.306811,0.14947 0.527086,0.40908 0.220274,0.25174 0.346145,0.56642 0.125872,0.30681 0.125872,0.62935 0,0.45629 -0.204541,0.86537 -0.196674,0.40121 -0.558553,0.65295 -0.36188,0.25175 -0.84963,0.25175 H 22.57883 v 2.06114 z m 0.550686,-2.54889 h 1.785797 q 0.330412,0 0.574287,-0.18094 0.243875,-0.18094 0.377613,-0.47202 0.133738,-0.29108 0.133738,-0.62936 0,-0.34614 -0.157339,-0.63722 -0.157338,-0.29108 -0.416948,-0.45628 -0.251742,-0.17307 -0.558553,-0.17307 H 22.57883 Z"
         style="font-style:normal;font-variant:normal;font-weight:normal;font-stretch:normal;font-family:Raleway;-inkscape-font-specification:Raleway;stroke-width:0.42224967"
         id="path828" />
      <path
         d="m 27.047253,149.92096 q 0.110137,0.008 0.212408,0.008 0.10227,0.008 0.149472,-0.008 0.0944,-0.0157 0.180939,-0.11014 0.08654,-0.0944 0.204541,-0.36188 0.118004,-0.26747 0.330412,-0.78669 l -1.785797,-4.09868 h 0.56642 l 1.502587,3.54799 1.384582,-3.54799 h 0.534953 l -2.124076,5.28659 q -0.05507,0.14947 -0.165206,0.27534 -0.110137,0.13374 -0.275343,0.20454 -0.157339,0.0787 -0.393347,0.0865 -0.0708,0.008 -0.149472,0 -0.0708,0 -0.173073,-0.0157 z"
         style="font-style:normal;font-variant:normal;font-weight:normal;font-stretch:normal;font-family:Raleway;-inkscape-font-specification:Raleway;stroke-width:0.42224967"
         id="path830" />
      <path
         d="m 33.435212,148.70158 q -0.590021,0 -1.069905,-0.23601 -0.479883,-0.23601 -0.826029,-0.63722 -0.346145,-0.40908 -0.534952,-0.91257 -0.188807,-0.51135 -0.188807,-1.0463 0,-0.55855 0.196674,-1.06204 0.196673,-0.51135 0.550686,-0.9047 0.361879,-0.40121 0.841763,-0.62935 0.479884,-0.23601 1.038437,-0.23601 0.590021,0 1.069905,0.24388 0.479883,0.24387 0.818162,0.65295 0.346146,0.40908 0.534952,0.91257 0.188807,0.50348 0.188807,1.03057 0,0.55855 -0.196674,1.0699 -0.196673,0.50349 -0.550686,0.9047 -0.354012,0.39335 -0.833896,0.62149 -0.479884,0.22814 -1.038437,0.22814 z m -2.069007,-2.8321 q 0,0.45628 0.149472,0.8811 0.149472,0.41695 0.424815,0.74736 0.275343,0.32254 0.652957,0.51922 0.38548,0.1888 0.841763,0.1888 0.479884,0 0.857497,-0.19667 0.385481,-0.20454 0.652957,-0.53495 0.275343,-0.33828 0.416948,-0.75523 0.141605,-0.41695 0.141605,-0.84963 0,-0.45628 -0.149472,-0.87323 -0.149472,-0.41695 -0.432682,-0.74736 -0.275343,-0.33041 -0.652957,-0.51922 -0.377613,-0.1888 -0.833896,-0.1888 -0.472017,0 -0.857497,0.19667 -0.377613,0.19667 -0.652957,0.53495 -0.267476,0.33041 -0.416948,0.74736 -0.141605,0.41695 -0.141605,0.84963 z"
         style="font-style:normal;font-variant:normal;font-weight:normal;font-stretch:normal;font-family:Raleway;-inkscape-font-specification:Raleway;stroke-width:0.42224967"
         id="path832" />
      <path
         d="m 38.76113,148.74092 q -0.448416,0 -0.82603,-0.16521 -0.369746,-0.17307 -0.652956,-0.47202 -0.275343,-0.29894 -0.432682,-0.68442 -0.149472,-0.38548 -0.149472,-0.81816 0,-0.58216 0.259609,-1.06204 0.259609,-0.47988 0.723759,-0.76309 0.46415,-0.28321 1.069905,-0.28321 0.574287,0 1.014836,0.26747 0.440549,0.25961 0.652956,0.70803 l -0.519218,0.1652 q -0.173073,-0.31468 -0.487751,-0.48775 -0.306811,-0.18094 -0.684424,-0.18094 -0.409081,0 -0.74736,0.21241 -0.338279,0.21241 -0.542819,0.58215 -0.196674,0.36975 -0.196674,0.84177 0,0.46415 0.204541,0.84176 0.20454,0.37761 0.542819,0.60575 0.338279,0.22028 0.74736,0.22028 0.267476,0 0.511351,-0.0944 0.251743,-0.0944 0.432682,-0.25175 0.188807,-0.1652 0.251743,-0.35401 l 0.527085,0.15734 q -0.110137,0.29108 -0.369747,0.52709 -0.251742,0.22814 -0.597887,0.36188 -0.338279,0.12587 -0.731626,0.12587 z"
         style="font-style:normal;font-variant:normal;font-weight:normal;font-stretch:normal;font-family:Raleway;-inkscape-font-specification:Raleway;stroke-width:0.42224967"
         id="path834" />
      <path
         d="m 43.268887,148.46557 q -0.06294,0.0236 -0.196674,0.0865 -0.133738,0.0629 -0.322544,0.11014 -0.188807,0.0472 -0.409082,0.0472 -0.228141,0 -0.432682,-0.0865 -0.196673,-0.0865 -0.314677,-0.25961 -0.118005,-0.18094 -0.118005,-0.44055 v -2.93437 h -0.56642 v -0.42481 h 0.56642 v -1.38458 h 0.534953 v 1.38458 h 0.944033 v 0.42481 h -0.944033 v 2.7849 q 0.01573,0.22028 0.157339,0.33041 0.149472,0.11014 0.338278,0.11014 0.220275,0 0.401214,-0.0708 0.18094,-0.0787 0.220275,-0.11014 z"
         style="font-style:normal;font-variant:normal;font-weight:normal;font-stretch:normal;font-family:Raleway;-inkscape-font-specification:Raleway;stroke-width:0.42224967"
         id="path836" />
      <path
         d="m 45.613224,148.74092 q -0.440549,0 -0.818162,-0.16521 -0.369747,-0.17307 -0.64509,-0.46415 -0.267476,-0.29894 -0.416948,-0.67656 -0.149472,-0.38548 -0.149472,-0.81029 0,-0.44055 0.149472,-0.81816 0.149472,-0.38548 0.424815,-0.67656 0.275343,-0.29895 0.64509,-0.46415 0.377613,-0.17307 0.818162,-0.17307 0.440549,0 0.810295,0.17307 0.369747,0.1652 0.64509,0.46415 0.275343,0.29108 0.424815,0.67656 0.149472,0.37761 0.149472,0.81816 0,0.42481 -0.149472,0.81029 -0.149472,0.37762 -0.424815,0.67656 -0.267476,0.29108 -0.64509,0.46415 -0.369746,0.16521 -0.818162,0.16521 z m -1.486853,-2.10835 q 0,0.45629 0.196674,0.8339 0.20454,0.36975 0.542819,0.59002 0.338279,0.21241 0.74736,0.21241 0.409081,0 0.74736,-0.22028 0.338278,-0.22027 0.542819,-0.59788 0.204541,-0.38548 0.204541,-0.8339 0,-0.45628 -0.204541,-0.8339 -0.204541,-0.37761 -0.542819,-0.59788 -0.338279,-0.22028 -0.74736,-0.22028 -0.409081,0 -0.74736,0.22814 -0.330412,0.22815 -0.534952,0.60576 -0.204541,0.36974 -0.204541,0.83389 z"
         style="font-style:normal;font-variant:normal;font-weight:normal;font-stretch:normal;font-family:Raleway;-inkscape-font-specification:Raleway;stroke-width:0.42224967"
         id="path838" />
    </g>
    <rect
       style="fill:#000000;fill-opacity:0;stroke:#000000;stroke-width:0.34999999;stroke-miterlimit:4;stroke-dasharray:none;stroke-dashoffset:0;stroke-opacity:1"
       id="rect822"
       width="25.390606"
       height="18.976137"
       x="22.16609"
       y="122.32301" />
    <rect
       style="fill:#e6e6e6;fill-opacity:1;stroke:#000000;stroke-width:0.34999999;stroke-miterlimit:4;stroke-dasharray:none;stroke-dashoffset:0;stroke-opacity:1"
       id="rect824"
       width="13.279156"
       height="18.976341"
       x="34.277538"
       y="122.32281" />
    <rect
       style="fill:#000000;fill-opacity:0;stroke:#000000;stroke-width:0.34999999;stroke-miterlimit:4;stroke-dasharray:none;stroke-dashoffset:0;stroke-opacity:1"
       id="rect826"
       width="13.252429"
       height="9.6085405"
       x="34.277538"
       y="122.32281" />
    <rect
       style="fill:#c8c8c8;fill-opacity:1;stroke:#000000;stroke-width:0.34999999;stroke-miterlimit:4;stroke-dasharray:none;stroke-dashoffset:0;stroke-opacity:1"
       id="rect828"
       width="6.8755093"
       height="9.5883026"
       x="40.654461"
       y="122.34306" />
    <rect
       style="fill:#000000;fill-opacity:0;stroke:#000000;stroke-width:0.34999999;stroke-miterlimit:4;stroke-dasharray:none;stroke-dashoffset:0;stroke-opacity:1"
       id="rect830"
       width="6.3785586"
       height="4.1861267"
       x="34.275906"
       y="127.74524" />
    <rect
       style="fill:#000000;fill-opacity:0;stroke:#000000;stroke-width:0.34999999;stroke-miterlimit:4;stroke-dasharray:none;stroke-dashoffset:0;stroke-opacity:1"
       id="rect832"
       width="3.2002563"
       height="4.1832299"
       x="34.275906"
       y="127.74524" />
    <rect
       style="fill:#646464;fill-opacity:1;stroke:#000000;stroke-width:0.34999999;stroke-miterlimit:4;stroke-dasharray:none;stroke-dashoffset:0;stroke-opacity:1"
       id="rect834"
       width="3.1749983"
       height="2.1668174"
       x="34.301163"
       y="129.76164" />
    <rect
       style="fill:#aaaaaa;fill-opacity:1;stroke:#000000;stroke-width:0.34999999;stroke-miterlimit:4;stroke-dasharray:none;stroke-dashoffset:0;stroke-opacity:1"
       id="rect836"
       width="6.3769259"
       height="5.4224315"
       x="34.277538"
       y="122.32281" />
    <rect
       style="fill:#8c8c8c;fill-opacity:1;stroke:#000000;stroke-width:0.34999999;stroke-miterlimit:4;stroke-dasharray:none;stroke-dashoffset:0;stroke-opacity:1"
       id="rect838"
       width="3.178299"
       height="4.1861267"
       x="37.476162"
       y="127.74524" />
    <rect
       style="fill:#828282;fill-opacity:1;stroke:#000000;stroke-width:0.34999999;stroke-miterlimit:4;stroke-dasharray:none;stroke-dashoffset:0;stroke-opacity:1"
       id="rect840"
       width="3.2002563"
       height="2.0164032"
       x="34.275906"
       y="127.74524" />
    <rect
       style="fill:#fafafa;fill-opacity:1;stroke:#000000;stroke-width:0.34999999;stroke-miterlimit:4;stroke-dasharray:none;stroke-dashoffset:0;stroke-opacity:1"
       id="rect842"
       width="12.111447"
       height="18.976135"
       x="22.16609"
       y="122.32301" />
  </g>
</svg>
